<svg width="29" height="28" viewBox="0 0 29 28" fill="none" xmlns="http://www.w3.org/2000/svg">
<path d="M14.5 26.6316C21.9558 26.6316 28 20.9445 28 13.9292C28 6.91386 21.9558 1.22681 14.5 1.22681C7.04416 1.22681 1 6.91386 1 13.9292C1 20.9445 7.04416 26.6316 14.5 26.6316Z" stroke="black" stroke-width="2" stroke-linecap="round" stroke-linejoin="round"/>
<path d="M14.5001 19.0102C17.4824 19.0102 19.9001 16.7354 19.9001 13.9292C19.9001 11.1231 17.4824 8.84827 14.5001 8.84827C11.5178 8.84827 9.1001 11.1231 9.1001 13.9292C9.1001 16.7354 11.5178 19.0102 14.5001 19.0102Z" stroke="black" stroke-width="2" stroke-linecap="round" stroke-linejoin="round"/>
<path d="M18.3203 17.5239L24.0443 22.9097" stroke="black" stroke-width="2" stroke-linecap="round" stroke-linejoin="round"/>
<path d="M4.95557 22.9097L10.6796 17.5239" stroke="black" stroke-width="2" stroke-linecap="round" stroke-linejoin="round"/>
<path d="M18.3203 10.3345L24.0443 4.94873" stroke="black" stroke-width="2" stroke-linecap="round" stroke-linejoin="round"/>
<path d="M18.3203 10.3344L23.0858 5.85046" stroke="black" stroke-width="2" stroke-linecap="round" stroke-linejoin="round"/>
<path d="M4.95557 4.94873L10.6796 10.3345" stroke="black" stroke-width="2" stroke-linecap="round" stroke-linejoin="round"/>
</svg>
