<svg width="35" height="28" viewBox="0 0 35 28" fill="none" xmlns="http://www.w3.org/2000/svg">
<path d="M26.6592 25.9118C28.6048 25.9118 30.1819 24.4278 30.1819 22.5972C30.1819 20.7666 28.6048 19.2826 26.6592 19.2826C24.7137 19.2826 23.1365 20.7666 23.1365 22.5972C23.1365 24.4278 24.7137 25.9118 26.6592 25.9118Z" stroke="black" stroke-width="2.81818" stroke-linecap="round" stroke-linejoin="round"/>
<path d="M8.34084 25.9118C10.2864 25.9118 11.8636 24.4278 11.8636 22.5972C11.8636 20.7666 10.2864 19.2826 8.34084 19.2826C6.39529 19.2826 4.81812 20.7666 4.81812 22.5972C4.81812 24.4278 6.39529 25.9118 8.34084 25.9118Z" stroke="black" stroke-width="2.81818" stroke-linecap="round" stroke-linejoin="round"/>
<path d="M23.1365 8.6759H28.7728L33.0001 12.6534V19.2826H23.1365V8.6759Z" stroke="black" stroke-width="2.81818" stroke-linecap="round" stroke-linejoin="round"/>
<path d="M23.1364 2.04663H2V19.2825H23.1364V2.04663Z" stroke="black" stroke-width="2.81818" stroke-linecap="round" stroke-linejoin="round"/>
</svg>
